<?xml version="1.0" encoding="utf-8"?>
<!-- Generator: Adobe Illustrator 21.1.0, SVG Export Plug-In . SVG Version: 6.00 Build 0)  -->
<svg version="1.1" id="Layer_1" xmlns="http://www.w3.org/2000/svg" xmlns:xlink="http://www.w3.org/1999/xlink" x="0px" y="0px"
	 viewBox="0 0 268.6 168.9" style="enable-background:new 0 0 268.6 168.9;" xml:space="preserve">
<style type="text/css">
	.st0{fill:#E01F26;}
	.st1{fill:#010101;}
</style>
<g>
	<path class="st0" d="M92.9,0l15.5,111H83.8L72.9,33.5l-0.3-0.2L54.1,68.6h19.9L77,89.2H43.3L31.8,111H4.4l10.8-21.8H0l10.6-20.6
		h15.5L62.3,0H92.9z M268.5,25.7L253.6,111H229l-18.6-42.9c-2.8,14.2-5.1,28.7-7.6,42.9h-24.8c0.9-6.5,2.2-13.2,2.8-19.7
		c-8,14.1-22.3,22.4-38.3,22.1c-11.7-0.1-25.9-7.5-32.4-17l-6.4-44.6c5.7-15,21.2-26.6,37.1-27.9c16.2-0.9,30,5.9,39.4,19.4
		c3.3,4.9,5.2,10.4,6.4,16.2l6.1-33.8h24.1l19,43.1c2.6-14.3,5.2-28.7,7.6-43.1H268.5z M157.8,53.1c-4.8-6-12.5-7.9-19.6-5.6
		c-5.9,1.6-10.6,8.1-12.6,13.4c-3.5,9.3,0.5,22.1,6.9,26c4.4,2.7,9.4,4.1,14.6,2.6c5.2-1.7,10.4-5.9,12.7-11.2
		C163.3,70.9,163.9,59.6,157.8,53.1"/>
	<polygon class="st1" points="4.4,161 4.4,138.8 16.5,138.8 16.5,141.9 8.8,141.9 8.8,147.9 16.4,147.9 16.4,150.9 8.8,150.9 
		8.8,158 17.8,158 17.8,161 	"/>
	<path class="st1" d="M41.6,161v-9c0-1.6-0.1-2.4-0.5-3.1c-0.4-0.8-1.2-1.3-2.2-1.3c-1.2,0-2.2,0.7-2.8,1.9
		c-0.3,0.5-0.4,1.2-0.4,2.6v8.9h-4.3v-8.9c0-1.6-0.1-2.4-0.4-3c-0.4-0.8-1.1-1.4-2.2-1.4c-1.5,0-2.5,0.8-2.9,2.1
		c-0.2,0.7-0.3,1.6-0.3,2.7v8.6h-4.2v-15.8h4.2v2.3c1.1-1.7,2.8-2.7,5-2.7c2.2,0,3.8,0.9,4.6,2.9c1.2-1.9,3.1-2.9,5.2-2.9
		c2.3,0,4,1,4.8,2.6c0.5,1,0.7,1.8,0.7,4.3v9.3H41.6z"/>
	<path class="st1" d="M54.6,158.6v10.3h-4.2v-23.7h4.2v2.5c1.4-1.9,3-2.9,5.4-2.9c4,0,7,3.2,7,7.9c0,4.8-3.2,8.6-7.5,8.6
		C57.6,161.4,55.9,160.5,54.6,158.6 M62.6,152.9c0-3.6-1.8-5.6-3.9-5.6c-2,0-4.1,1.7-4.1,5.9c0,3.3,1.4,5.7,3.9,5.7
		C61.2,158.9,62.6,156,62.6,152.9"/>
	<path class="st1" d="M69.5,152.9c0-4.9,3.6-8.2,8.4-8.2c4.7,0,8.3,3.3,8.3,8.2c0,5.2-3.9,8.4-8.4,8.4
		C73.4,161.4,69.5,158.2,69.5,152.9 M81.9,153c0-3.9-1.7-6-4-6c-2.3,0-4,2.2-4,6c0,3.9,1.8,6.2,3.9,6.2
		C80.1,159.2,81.9,157,81.9,153"/>
	<polygon class="st1" points="106.9,161 103.9,161 99.9,150.4 95.9,161 93,161 87.4,145.6 91.6,144.9 95,156 99.1,145.2 
		101.9,145.2 105.8,156 109.4,144.9 113,145.4 	"/>
	<path class="st1" d="M128.9,159.5c-2,1.3-4.1,1.9-6.3,1.9c-2.2,0-4-0.6-5.5-1.8c-2-1.5-3-4-3-6.8c0-2.5,1-4.8,2.8-6.3
		c1.4-1.1,3.1-1.7,5.2-1.7c2.4,0,4.1,0.8,5.3,2.3c1.1,1.3,1.6,3.2,1.6,5.2c0,0.3,0,0.7,0,1.1h-10.5c0.1,3.2,1.8,5.2,4.9,5.2
		c1.4,0,2.9-0.6,4.2-1.4L128.9,159.5z M125.3,150.9c0-2.3-1.1-4-3.2-4c-2,0-3.4,1.5-3.5,4.4h6.7V150.9z"/>
	<path class="st1" d="M142.2,149.2c-0.7-0.5-1.5-0.6-2-0.6c-1.3,0-2.3,0.8-2.8,2.4c-0.3,0.8-0.4,1.8-0.4,3.6v6.4h-4.2v-15.8h4.2v3.1
		c0.1-0.3,0.2-0.6,0.3-0.8c0.7-1.5,1.7-2.7,3.3-2.7c0.9,0,1.9,0.4,3,1.3L142.2,149.2z"/>
	<path class="st1" d="M164.9,161.4l-4.5-9.5h-2.9v9.1H153v-22.1h6.3c3.2,0,4.9,0.4,6.3,1.3c1.5,1,2.4,2.8,2.4,4.8
		c0,2.8-1.6,4.9-3.9,6.1l5.3,9.5L164.9,161.4z M162.6,142.6c-0.8-0.6-1.8-0.9-3.6-0.9h-1.5v7.6h1.9c1.9,0,2.7-0.4,3.4-1.2
		c0.7-0.9,1-2.1,1-2.8C163.7,144.1,163.3,143.1,162.6,142.6"/>
	<path class="st1" d="M185.8,159.5c-2,1.3-4.1,1.9-6.3,1.9c-2.2,0-4-0.6-5.5-1.8c-2-1.5-3-4-3-6.8c0-2.5,1-4.8,2.8-6.3
		c1.4-1.1,3.1-1.7,5.2-1.7c2.4,0,4.1,0.8,5.3,2.3c1.1,1.3,1.6,3.2,1.6,5.2c0,0.3,0,0.7,0,1.1h-10.5c0.1,3.2,1.8,5.2,4.9,5.2
		c1.4,0,2.9-0.6,4.2-1.4L185.8,159.5z M182.2,150.9c0-2.3-1.1-4-3.2-4c-2,0-3.4,1.5-3.5,4.4h6.7V150.9z"/>
	<path class="st1" d="M188.4,159.6l1.2-2.3c1,0.9,2.3,1.6,3.4,1.6c1.5,0,2.3-0.8,2.3-2c0-1-0.6-1.7-2.6-3.2
		c-1.8-1.3-3.4-2.6-3.4-4.7c0-2.6,2.2-4.3,5.4-4.3c1.7,0,3.3,0.5,4.6,1.3l-1.1,2c-0.8-0.6-1.7-0.9-2.6-0.9c-1.4,0-2.1,0.9-2.1,1.6
		c0,0.9,0.7,1.6,2.3,2.8c3.1,2.2,3.8,3.2,3.8,5.1c0,2.8-2.5,4.6-5.9,4.6C191.6,161.4,189.8,160.7,188.4,159.6"/>
	<path class="st1" d="M213.4,161v-2.3c-1.4,1.9-2.9,2.7-5.1,2.7c-2.3,0-4.3-1.1-5-3c-0.4-1-0.5-1.8-0.5-4.3v-8.9h4.2v9
		c0,1.4,0.1,2.3,0.4,2.9c0.4,0.8,1.3,1.4,2.6,1.4c1.4,0,2.4-0.7,2.9-1.9c0.3-0.8,0.4-1.7,0.4-2.9v-8.5h4.3V161H213.4z"/>
	<rect x="222.2" y="137.8" class="st1" width="4.2" height="23.2"/>
	<path class="st1" d="M240.7,160.4c-1.4,0.6-2.7,1-4.2,1c-2,0-3.3-0.6-4.1-1.8c-0.6-1-0.8-1.8-0.8-4v-8.2h-2.2v-2.2h2.2v-3.8
		l4.2-0.9v4.7h4.1v2.2h-4.1v7.1c0,2.8,0.5,4.4,2.2,4.4c0.6,0,1.2-0.1,1.9-0.5L240.7,160.4z"/>
	<path class="st1" d="M242.5,159.6l1.2-2.3c1,0.9,2.3,1.6,3.4,1.6c1.5,0,2.3-0.8,2.3-2c0-1-0.6-1.7-2.7-3.2
		c-1.8-1.3-3.4-2.6-3.4-4.7c0-2.6,2.2-4.3,5.4-4.3c1.7,0,3.3,0.5,4.6,1.3l-1.1,2c-0.8-0.6-1.7-0.9-2.6-0.9c-1.4,0-2.1,0.9-2.1,1.6
		c0,0.9,0.7,1.6,2.3,2.8c3.1,2.2,3.8,3.2,3.8,5.1c0,2.8-2.5,4.6-5.9,4.6C245.7,161.4,243.9,160.7,242.5,159.6"/>
	<path class="st1" d="M256.6,144.9c0-3.4,2.7-6,6.1-6c3.3,0,5.9,2.7,5.9,6c0,3.3-2.6,6-6,6C259.2,150.9,256.6,148.2,256.6,144.9
		 M267.2,144.9c0-2.7-2.1-4.9-4.6-4.9c-2.5,0-4.5,2.2-4.5,4.8c0,2.7,2.1,4.8,4.6,4.8C265.1,149.7,267.2,147.6,267.2,144.9
		 M263.7,148.1l-1.1-2.7h-0.7v2.5h-1.4v-6.3h2c0.6,0,1.2,0.1,1.7,0.4c0.5,0.3,0.8,0.7,0.8,1.4c0,0.8-0.4,1.4-1.1,1.8l1.4,2.6
		L263.7,148.1z M262.3,144.4c0.6,0,1-0.3,1-0.9c0-0.7-0.5-0.9-1-0.9h-0.5v1.7H262.3z"/>
</g>
</svg>
